<svg width="191" height="58" viewBox="0 0 191 58" fill="none" xmlns="http://www.w3.org/2000/svg">
<g id="Group">
<path id="Vector" d="M0 42.2176V17.305C0 16.9607 0.1835 16.6439 0.480896 16.4707L15.0196 8.04468C15.3191 7.87147 15.6903 7.87147 15.9877 8.0468L37.436 20.6615C38.0709 21.0354 38.0688 21.9542 37.4318 22.326L31.5641 25.7416C31.2645 25.9169 30.8912 25.9148 30.5917 25.7395L9.54198 13.3318C9.24459 13.1565 8.87548 13.1544 8.57597 13.3254L8.36716 13.4459C8.06766 13.6169 7.88416 13.9359 7.88416 14.2823V38.764C7.88416 39.1083 7.70066 39.4251 7.40326 39.5983L1.4448 43.0519C0.801493 43.4237 0 42.959 0 42.2176Z" fill="white"/>
<path id="Vector_2" d="M27.5527 0.129346L49.1297 12.518C49.4271 12.6891 49.6127 13.006 49.6149 13.3503L49.6824 30.1706C49.6845 30.5191 49.4989 30.8402 49.1972 31.0113L27.6033 43.3683C26.9621 43.7337 26.167 43.2753 26.1628 42.536L26.1227 35.7428C26.1206 35.3943 26.3062 35.0711 26.6099 34.8979L47.8263 22.7817C48.1279 22.6106 48.3135 22.2896 48.3135 21.9431V21.7023C48.3135 21.3559 48.1279 21.037 47.8284 20.8659L26.6204 8.69475C26.3231 8.52365 26.1374 8.20681 26.1353 7.86039L26.1079 0.970045C26.1058 0.226513 26.9094 -0.240307 27.5527 0.129346Z" fill="white"/>
<path id="Vector_3" d="M50.6353 45.0406L29.1785 57.6384C28.8811 57.8116 28.5162 57.8158 28.2167 57.6447L13.6064 49.3455C13.3047 49.1744 13.1191 48.8533 13.1191 48.5048L13.1402 23.5986C13.1402 22.8614 13.9354 22.3967 14.5766 22.76L20.4844 26.1016C20.7882 26.2727 20.9738 26.5938 20.9738 26.9423L20.9316 51.4029C20.9316 51.7493 21.1151 52.0703 21.4167 52.2414L21.6255 52.3597C21.925 52.5308 22.2941 52.5287 22.5915 52.3555L43.6792 39.9753C43.9766 39.8021 44.3436 39.7978 44.641 39.9689L50.6269 43.3698C51.2681 43.7373 51.2744 44.6646 50.6353 45.0406Z" fill="white"/>
<path id="Vector_4" d="M78.3949 39.2325L65.938 22.4439V39.2325H61.998V15.8218H65.8726L78.3949 32.6442V15.8218H82.2695V39.2325H78.3949Z" fill="white"/>
<path id="Vector_5" d="M102.671 39.2326H98.8301V35.7536C97.6279 38.2292 95.39 39.3318 92.4857 39.3656C88.4107 39.3656 85.9746 36.7569 85.9746 32.5091V21.4385H89.8154V31.4381C89.8154 34.1144 91.3847 35.7515 93.9558 35.7515C97.0289 35.6839 98.8322 33.3096 98.8322 30.2003V21.4385H102.673V39.2326H102.671Z" fill="white"/>
<path id="Vector_6" d="M125.48 19.3378L123.176 22.2148C121.474 20.375 119.036 19.2385 116.665 19.2385C111.989 19.2385 108.317 22.8506 108.317 27.466C108.317 32.0814 111.991 35.7272 116.665 35.7272C119.002 35.7272 121.407 34.6563 123.176 32.9516L125.513 35.5603C123.143 37.9008 119.77 39.4068 116.463 39.4068C109.616 39.4068 104.308 34.2232 104.308 27.5019C104.308 20.846 109.684 15.73 116.596 15.73C119.903 15.7258 123.21 17.0988 125.48 19.3378Z" fill="white"/>
<path id="Vector_7" d="M144.817 28.1627V39.2333H140.976V29.2337C140.976 26.5574 139.373 24.9204 136.701 24.9204C133.529 24.9542 131.624 27.3284 131.624 30.4715V39.2333H127.783V14.418H131.624V24.9182C132.894 22.4109 135.163 21.3062 138.203 21.3062C142.345 21.3083 144.817 23.9149 144.817 28.1627Z" fill="white"/>
<path id="Vector_8" d="M158.942 37.0666C157.673 38.6381 155.637 39.407 153.064 39.407C149.223 39.407 146.819 37.0328 146.819 33.8897C146.819 30.6452 149.257 28.573 153.53 28.5392H158.907V28.0048C158.907 25.7636 157.47 24.4265 154.665 24.4265C152.963 24.4265 151.191 25.0285 149.422 26.2326L147.854 23.5541C150.326 22.0819 152.13 21.313 155.502 21.313C160.077 21.313 162.648 23.6534 162.682 27.5675L162.716 39.2401H158.942V37.0666ZM158.909 32.9856V31.3464H154.1C151.596 31.3464 150.426 32.016 150.426 33.7207C150.426 35.326 151.727 36.3632 153.866 36.3632C156.605 36.3632 158.708 34.9247 158.909 32.9856Z" fill="white"/>
<path id="Vector_9" d="M170.33 16.357C170.33 17.6941 169.362 18.6637 168.092 18.6637C166.823 18.6637 165.854 17.6941 165.854 16.357C165.854 14.9861 166.823 14.0166 168.092 14.0166C169.362 14.0166 170.33 14.9861 170.33 16.357Z" fill="white"/>
<path id="Vector_10" d="M169.996 21.4468H166.189V39.2387H169.996V21.4468Z" fill="white"/>
<path id="Vector_11" d="M191 28.1653V39.2359H187.159V29.2363C187.159 26.56 185.556 24.9229 182.884 24.9229C179.946 24.9567 178.109 26.9972 177.841 29.7728V39.238H174V21.4461H177.841V24.8574C179.111 22.3818 181.38 21.313 184.386 21.313C188.53 21.3109 191 23.9175 191 28.1653Z" fill="white"/>
</g>
</svg>
