<svg width="13" height="12" viewBox="0 0 13 12" fill="none" xmlns="http://www.w3.org/2000/svg">
<path d="M10.5001 5C10.5001 8 6.50006 11 6.50006 11C6.50006 11 2.50006 8 2.50006 5C2.50006 3.93913 2.92149 2.92172 3.67163 2.17157C4.42178 1.42143 5.4392 1 6.50006 1C7.56093 1 8.57834 1.42143 9.32849 2.17157C10.0786 2.92172 10.5001 3.93913 10.5001 5Z" stroke="#708090" stroke-linecap="round" stroke-linejoin="round"/>
<path d="M6.50006 6.5C7.32849 6.5 8.00006 5.82843 8.00006 5C8.00006 4.17157 7.32849 3.5 6.50006 3.5C5.67163 3.5 5.00006 4.17157 5.00006 5C5.00006 5.82843 5.67163 6.5 6.50006 6.5Z" stroke="#708090" stroke-linecap="round" stroke-linejoin="round"/>
</svg>
